<?xml version="1.0" encoding="utf-8"?>
<!-- Generator: Adobe Illustrator 24.0.1, SVG Export Plug-In . SVG Version: 6.00 Build 0)  -->
<svg version="1.1" id="Capa_1" xmlns="http://www.w3.org/2000/svg" xmlns:xlink="http://www.w3.org/1999/xlink" x="0px" y="0px"
	 viewBox="0 0 442.3 562.9" style="enable-background:new 0 0 442.3 562.9;" xml:space="preserve">
<style type="text/css">
	.st0{fill:none;stroke:#000000;stroke-width:2;stroke-miterlimit:10;}
	.st1{stroke:#000000;stroke-width:2;stroke-miterlimit:10;}
</style>
<path class="st0" d="M322,203.4c-17.5,0-25.1,16.7-30.3,30.9c-6.7,18.6-12.6,37.6-19.5,56.1c5.3-32.7,11.9-65.2,18-97.8
	c3.9-20.8,14.3-65.4-22.4-61c-24.4,2.9-23.7,36.7-27.3,54.8c-6.4,32.4-13.3,64.8-18.9,97.4c2.1-46.2,0-92.9,0-139.2
	c0-6.5,0-12.9,0-19.4c0-20.2-32.3-22.8-43.2-11.2c-7.1,7.5-6.6,19.5-6.6,29.1c0.1,14,0.3,28.1,0.5,42.1c0.3,31.4,1,62.7,0.3,94.1
	c-6.8-35.4-14.9-70.6-21-106.2c-3.5-20.4-12.7-54.7-41.6-38.3c-12.2,7-12,23.3-10.5,35.5c2.3,19.3,6.4,38.5,9,57.9
	c5.3,39.6,11,79.1,15.8,118.8c-8-15.6-14.5-32.1-22.2-47.9c-5.4-11.2-10.5-28-24.1-31.7c-11.8-3.2-29.2,3.5-32.2,16.4
	c-3.3,14.3,7.9,33.6,12.8,46.6c22.3,58.8,40.4,144.2,112.6,158.7c67.9,13.7,140.2-34.6,138.7-107.2c-0.3-15.6-3.1-31.4,0.9-46.8
	c4.9-18.6,13.2-36.4,19.2-54.7C336.6,261.7,362.2,203.4,322,203.4z M189.9,341.5h12.5l0,0h7.4l0,0h12.5l0,0h7.4l0,0h12.5l0,0h7.4
	l0,0h12.5l0,0h5.4c1,0,1.3,0.2,1.3,1v7.9c0,0.2-0.1,0.5-0.2,0.7c-0.2,0.8-1.7,1.7-2.9,1.7h-0.2V420c0,1-0.8,1.7-1.7,1.7H159.1
	c-1,0-1.7-0.8-1.7-1.7v-67.2c-1.1-0.2-2.1-1-2.3-1.7c-0.1-0.2-0.2-0.4-0.2-0.6v-7.9c0-0.8,0.2-1,1.1-1c-0.1-0.2-0.2-0.3-0.2-0.4
	l-0.2-2.1l-0.7-6.2c-0.1-0.8,0.6-1.6,1.7-1.7l27.9-3.2l7.6-0.9l0,0l7.3-0.8l0,0l12.4-1.4l0.1,0l7.3-0.8l-0.1-0.1l12.4-1.4l0.1,0.1
	l7.3-0.8l-0.1-0.1l12.4-1.4l0.1,0.1l14.6-1.7c1-0.1,1.9,0.5,2,1.3l0.2,1.6c0,0.1,0.1,0.3,0.1,0.4l0.8,6.4c0.1,0.7-1.4,1.9-2.7,2.1
	l-92.6,10.6l0.4,0.6L189.9,341.5L189.9,341.5z"/>
<g>
	<g>
		<path class="st1" d="M194.9,390.7c-1.6,0-3-0.3-4.4-0.8s-2.5-1.3-3.5-2.3c-1-1-1.7-2.1-2.3-3.4c-0.5-1.3-0.8-2.7-0.8-4.1
			s0.3-2.8,0.8-4.1c0.5-1.3,1.3-2.4,2.3-3.4c1-1,2.1-1.7,3.5-2.3c1.3-0.6,2.8-0.8,4.4-0.8h1.9v0.7H195c-1.4,0-2.7,0.3-4,0.8
			c-1.2,0.5-2.3,1.2-3.2,2.1c-0.9,0.9-1.6,1.9-2.1,3.2c-0.5,1.2-0.8,2.5-0.8,3.9c0,1.4,0.3,2.7,0.8,3.9c0.5,1.2,1.2,2.3,2.1,3.2
			s2,1.6,3.2,2.1c1.2,0.5,2.6,0.7,4,0.7h1.8v0.7L194.9,390.7L194.9,390.7z"/>
		<path class="st1" d="M200.7,371.7c-0.2,0-0.4-0.1-0.5-0.2c-0.2-0.2-0.2-0.3-0.2-0.5c0-0.2,0.1-0.4,0.2-0.6
			c0.2-0.2,0.3-0.2,0.5-0.2c0.2,0,0.4,0.1,0.6,0.2c0.2,0.2,0.2,0.3,0.2,0.6c0,0.2-0.1,0.4-0.2,0.5
			C201.1,371.7,201,371.7,200.7,371.7z M200.3,390.7v-15.6h0.8v15.6H200.3z"/>
		<path class="st1" d="M206.3,390.7v-9.1c0-1.5,0.3-2.8,1-3.8s1.5-1.8,2.5-2.3c1-0.5,2.1-0.8,3.2-0.8c1.1,0,2.2,0.3,3.2,0.8
			c1,0.5,1.9,1.3,2.5,2.3s1,2.3,1,3.8v9.1h-0.8v-9c0-1.4-0.3-2.5-0.9-3.5c-0.6-0.9-1.3-1.6-2.3-2.1s-1.9-0.7-2.9-0.7
			c-1,0-2,0.2-2.9,0.7c-0.9,0.5-1.7,1.1-2.2,2.1c-0.6,0.9-0.9,2.1-0.9,3.5v9L206.3,390.7L206.3,390.7z"/>
		<path class="st1" d="M233,390.7c-1.6,0-3.1-0.3-4.4-0.9c-1.3-0.6-2.4-1.4-3.2-2.6c-0.8-1.1-1.2-2.6-1.2-4.3c0-1.4,0.3-2.7,0.9-4
			c0.6-1.2,1.4-2.2,2.5-3c1.1-0.8,2.4-1.2,3.9-1.2c1.4,0,2.6,0.3,3.6,0.9c1,0.6,1.8,1.5,2.4,2.6c0.6,1.1,0.9,2.3,0.9,3.7
			c0,0.2,0,0.4,0,0.7c0,0.2,0,0.4-0.1,0.7H225c0,1.5,0.4,2.7,1.1,3.7s1.7,1.8,2.8,2.3c1.2,0.5,2.4,0.8,3.8,0.8h3.7v0.7L233,390.7
			L233,390.7z M225,382.6h12.4c0-0.4,0-0.9,0-1.5c-0.1-0.6-0.2-1.2-0.4-1.9c-0.2-0.6-0.6-1.2-1.1-1.8s-1.1-1-1.8-1.4
			c-0.8-0.4-1.7-0.5-2.8-0.5c-1,0-1.8,0.2-2.6,0.6c-0.8,0.4-1.4,1-2,1.7c-0.5,0.7-1,1.5-1.3,2.3C225.2,380.9,225,381.7,225,382.6z"
			/>
	</g>
</g>
</svg>
